<svg width="1430" height="37" viewBox="0 0 1430 37" fill="none" xmlns="http://www.w3.org/2000/svg">
<g clip-path="url(#clip0_332_24533)">
<path d="M37.9492 1.08054C39.9106 0.117224 40.8826 0.24364 40.9044 1.22007C40.9307 2.48849 40.7431 4.17525 40.608 5.39575C39.88 12.0293 38.6639 17.4499 38.5724 24.2609C41.7761 15.967 44.4611 10.2026 47.9219 3.10304C49.0204 0.840819 49.7221 1.26365 50.6244 0.862612C54.1376 -0.702154 54.2684 0.256746 53.8106 2.17028C52.1064 9.25764 47.7432 31.5726 47.0764 35.0087C46.8845 36.0029 45.8036 35.5814 45.5246 35.1927C44.2737 33.4622 42.8615 33.4352 43.0183 32.2845C43.8029 26.5557 46.6274 12.1823 47.3641 8.79556C43.6111 16.4896 39.7188 26.1081 37.7181 31.5618C37.2952 32.7199 36.5237 32.6349 36.0443 31.7876C35.3687 30.5973 34.0567 29.9896 33.8387 28.583C33.1545 24.111 34.6234 15.587 34.8281 10.1943C32.784 16.0852 29.3536 27.5221 27.8498 32.6893C27.2309 34.8274 25.1648 34.4786 25.714 32.3948C27.9979 23.723 32.9191 8.38583 35.0461 2.872C35.5476 1.57302 36.8594 1.61661 37.9492 1.08054M25.4919 0.0169453C24.8294 -0.144294 22.9072 0.893092 21.7259 1.09792C21.3511 1.1633 20.9936 1.55992 20.8672 1.84331C18.9755 6.18899 17.2799 10.3315 15.811 14.1053C13.9324 14.4261 11.7356 14.8485 9.27728 15.4007C11.0382 10.8837 12.8166 6.42864 14.5514 2.14399C15.4057 0.034319 13.1566 -0.166163 12.2848 1.96964C11.1515 4.74622 9.02879 9.94839 6.67939 16.0118C4.95331 16.4351 3.12269 16.9189 1.20915 17.4716C-0.181344 17.873 -0.23796 18.2435 0.363562 19.0774C0.694803 19.5417 1.37915 19.4949 1.69295 19.8257C2.50371 20.6831 2.99627 21.7087 4.44765 21.8639C3.15309 25.3269 1.85853 28.8981 0.68604 32.3367C-0.0505847 34.4951 2.04598 34.9366 2.8524 32.6526C4.15131 28.9708 5.51994 25.2445 6.92781 21.5291C8.10029 21.2566 10.9378 20.6455 13.5574 20.0771C11.4783 25.7757 10.1096 30.1036 9.59099 32.2102C9.49513 32.6155 9.65637 32.8405 9.74355 33.0057C10.4453 34.0269 11.1122 34.0687 12.0145 35.3314C12.2586 35.6758 13.0781 35.8615 13.3569 35.0137C15.2835 29.1943 17.2668 23.7341 19.1148 18.8392C19.8819 18.6714 21.2637 18.3379 22.1093 17.0761C23.613 14.8365 24.0445 15.2907 24.4064 14.6098C24.8597 13.7551 24.5589 12.9526 22.9549 13.1509C22.9549 13.1509 22.3491 13.194 21.2289 13.3218C23.0072 8.74291 24.5633 4.85922 25.6835 1.89969C26.0672 0.897436 26.1152 0.165154 25.4919 0.0169453" fill="white"/>
<path d="M22.868 29.7151C23.282 30.7616 24.5766 30.4447 24.084 29.1816C23.5827 27.8948 22.3362 24.0212 22.0092 22.7732C21.5646 21.0917 23.4912 21.5515 22.5149 22.6509C21.678 23.5962 21.12 23.975 19.5727 25.7725C18.0777 27.5078 18.483 29.7596 20.0827 30.2569C21.8872 30.8183 23.4782 28.8298 24.4632 27.371C25.4178 25.9583 24.4937 25.1297 23.5305 25.9649C22.9115 26.5019 22.1967 27.3265 21.4731 27.7711C20.8846 28.1289 20.4226 27.7445 21.2072 26.6645C22.1182 25.4139 23.1381 24.3661 23.8965 23.1844C25.4439 20.7762 22.384 19.388 21.0677 20.9523C20.3615 21.7861 20.5403 22.6048 20.7321 23.3073C21.0416 24.4327 22.1923 28.0252 22.868 29.7151" fill="white"/>
</g>
<g clip-path="url(#clip1_332_24533)">
<path d="M131.688 2.23443C133.572 1.26472 134.514 1.39577 134.539 2.36546C134.564 3.62346 134.386 5.30078 134.259 6.50635C133.546 13.0846 132.376 18.4573 132.299 25.219C135.379 16.9896 137.975 11.2762 141.309 4.22624C142.378 1.97235 143.04 2.39167 143.905 1.99855C147.291 0.45227 147.418 1.39577 146.985 3.28275C145.331 10.3065 141.131 32.4524 140.495 35.8595C140.317 36.8554 139.273 36.4361 138.993 36.0429C137.797 34.3132 136.422 34.287 136.575 33.16C137.339 27.4729 140.062 13.2156 140.749 9.861C137.135 17.4876 133.368 27.0273 131.459 32.4524C131.052 33.6056 130.314 33.527 129.856 32.6883C129.194 31.5089 127.947 30.9061 127.743 29.5171C127.081 25.0879 128.507 16.6227 128.685 11.2762C126.725 17.1207 123.416 28.4688 121.965 33.6056C121.355 35.7284 119.369 35.3877 119.904 33.3173C122.093 24.721 126.852 9.49408 128.889 4.01658C129.372 2.70617 130.645 2.75859 131.688 2.23443" fill="white"/>
<path d="M131.688 2.23443C133.572 1.26472 134.514 1.39577 134.539 2.36546C134.564 3.62346 134.386 5.30078 134.259 6.50635C133.546 13.0846 132.376 18.4573 132.299 25.219C135.379 16.9896 137.975 11.2762 141.309 4.22624C142.378 1.97235 143.04 2.39167 143.905 1.99855C147.291 0.45227 147.418 1.39577 146.985 3.28275C145.331 10.3065 141.131 32.4524 140.495 35.8595C140.317 36.8554 139.273 36.4361 138.993 36.0429C137.797 34.3132 136.422 34.287 136.575 33.16C137.339 27.4729 140.062 13.2156 140.749 9.861C137.135 17.4876 133.368 27.0273 131.459 32.4524C131.052 33.6056 130.314 33.527 129.856 32.6883C129.194 31.5089 127.947 30.9061 127.743 29.5171C127.081 25.0879 128.507 16.6227 128.685 11.2762C126.725 17.1207 123.416 28.4688 121.965 33.6056C121.355 35.7284 119.369 35.3877 119.904 33.3173C122.093 24.721 126.852 9.49408 128.889 4.01658C129.372 2.70617 130.645 2.75859 131.688 2.23443" stroke="black" stroke-width="0.616667"/>
<path d="M119.675 1.157C119.039 0.999745 117.181 2.02186 116.035 2.23153C115.679 2.28395 115.323 2.70327 115.221 2.96535C113.388 7.2897 111.759 11.3782 110.359 15.1259C108.552 15.4404 106.44 15.8598 104.073 16.4101C105.778 11.9285 107.483 7.49937 109.163 3.25364C109.978 1.157 107.814 0.973537 106.974 3.0964C105.854 5.84825 103.818 11.0113 101.553 17.0391C99.8984 17.4585 98.1167 17.9302 96.2842 18.4806C94.9352 18.8737 94.8843 19.2406 95.4697 20.0793C95.8006 20.551 96.4623 20.4986 96.7423 20.8131C97.5313 21.6518 97.9895 22.6739 99.3894 22.8311C98.1422 26.2644 96.895 29.8025 95.7751 33.2096C95.0625 35.3586 97.0986 35.7779 97.8622 33.524C99.1094 29.8811 100.433 26.1858 101.782 22.4904C102.902 22.2283 105.651 21.6256 108.17 21.049C106.16 26.7099 104.836 31.0081 104.353 33.0785C104.251 33.4716 104.403 33.7075 104.505 33.8648C105.193 34.8869 105.829 34.9131 106.694 36.1711C106.923 36.5118 107.712 36.6952 107.992 35.8566C109.85 30.0908 111.759 24.6657 113.541 19.8172C114.279 19.6599 115.603 19.3192 116.417 18.0612C117.868 15.8336 118.275 16.2791 118.631 15.6239C119.064 14.7852 118.784 13.9728 117.232 14.1824C117.232 14.1824 116.646 14.2349 115.577 14.3397C117.282 9.80568 118.784 5.95308 119.879 3.01778C120.235 2.04807 120.286 1.31424 119.675 1.157" fill="white"/>
<path d="M119.675 1.157C119.039 0.999745 117.181 2.02186 116.035 2.23153C115.679 2.28395 115.323 2.70327 115.221 2.96535C113.388 7.2897 111.759 11.3782 110.359 15.1259C108.552 15.4404 106.44 15.8598 104.073 16.4101C105.778 11.9285 107.483 7.49937 109.163 3.25364C109.978 1.157 107.814 0.973537 106.974 3.0964C105.854 5.84825 103.818 11.0113 101.553 17.0391C99.8984 17.4585 98.1167 17.9302 96.2842 18.4806C94.9352 18.8737 94.8843 19.2406 95.4697 20.0793C95.8006 20.551 96.4623 20.4986 96.7423 20.8131C97.5313 21.6518 97.9895 22.6739 99.3894 22.8311C98.1422 26.2644 96.895 29.8025 95.7751 33.2096C95.0625 35.3586 97.0986 35.7779 97.8622 33.524C99.1094 29.8811 100.433 26.1858 101.782 22.4904C102.902 22.2283 105.651 21.6256 108.17 21.049C106.16 26.7099 104.836 31.0081 104.353 33.0785C104.251 33.4716 104.403 33.7075 104.505 33.8648C105.193 34.8869 105.829 34.9131 106.694 36.1711C106.923 36.5118 107.712 36.6952 107.992 35.8566C109.85 30.0908 111.759 24.6657 113.541 19.8172C114.279 19.6599 115.603 19.3192 116.417 18.0612C117.868 15.8336 118.275 16.2791 118.631 15.6239C119.064 14.7852 118.784 13.9728 117.232 14.1824C117.232 14.1824 116.646 14.2349 115.577 14.3397C117.282 9.80568 118.784 5.95308 119.879 3.01778C120.235 2.04807 120.286 1.31424 119.675 1.157" stroke="black" stroke-width="0.616667"/>
<path d="M115.678 28.6499C115.118 28.9906 114.66 28.6237 115.424 27.5492C115.551 27.3657 115.678 27.2085 115.806 27.025C115.933 27.4181 116.06 27.8375 116.187 28.2568C116.035 28.414 115.857 28.5451 115.678 28.6499M116.671 23.5917C116.544 23.749 116.391 23.9062 116.264 24.0373C116.238 23.9062 116.213 23.8014 116.187 23.7228C115.78 22.0717 117.613 22.5172 116.671 23.5917M117.664 26.8678C117.536 26.9726 117.409 27.1036 117.257 27.2609C117.104 26.7629 116.951 26.265 116.798 25.7932C117.231 25.2428 117.664 24.6925 118.02 24.1421C119.496 21.7572 116.569 20.3943 115.322 21.9406C114.66 22.7531 114.813 23.5655 114.991 24.2731C115.042 24.4828 115.144 24.7973 115.246 25.1642C114.889 25.5573 114.457 26.0291 113.871 26.7105C112.446 28.414 112.828 30.6417 114.355 31.1397C115.297 31.428 116.162 31.0086 116.9 30.3272C116.926 30.4321 116.977 30.5369 117.002 30.6155C117.409 31.6376 118.631 31.3231 118.173 30.0914C118.096 29.8817 117.995 29.5934 117.867 29.2527C118.122 28.9382 118.325 28.6237 118.529 28.3092C119.471 26.8678 118.58 26.0553 117.664 26.8678" fill="white"/>
<path d="M115.678 28.6499C115.118 28.9906 114.66 28.6237 115.424 27.5492C115.551 27.3657 115.678 27.2085 115.806 27.025C115.933 27.4181 116.06 27.8375 116.187 28.2568C116.035 28.414 115.857 28.5451 115.678 28.6499M116.671 23.5917C116.544 23.749 116.391 23.9062 116.264 24.0373C116.238 23.9062 116.213 23.8014 116.187 23.7228C115.78 22.0717 117.613 22.5172 116.671 23.5917M117.664 26.8678C117.536 26.9726 117.409 27.1036 117.257 27.2609C117.104 26.7629 116.951 26.265 116.798 25.7932C117.231 25.2428 117.664 24.6925 118.02 24.1421C119.496 21.7572 116.569 20.3943 115.322 21.9406C114.66 22.7531 114.813 23.5655 114.991 24.2731C115.042 24.4828 115.144 24.7973 115.246 25.1642C114.889 25.5573 114.457 26.0291 113.871 26.7105C112.446 28.414 112.828 30.6417 114.355 31.1397C115.297 31.428 116.162 31.0086 116.9 30.3272C116.926 30.4321 116.977 30.5369 117.002 30.6155C117.409 31.6376 118.631 31.3231 118.173 30.0914C118.096 29.8817 117.995 29.5934 117.867 29.2527C118.122 28.9382 118.325 28.6237 118.529 28.3092C119.471 26.8678 118.58 26.0553 117.664 26.8678" stroke="black" stroke-width="0.616667"/>
<path d="M199.162 2.705C202.344 2.705 205.245 4.40854 206.798 7.21281C208.35 10.0171 208.961 13.3717 208.961 18.6396C208.961 28.7297 205.474 34.181 199.086 34.181C195.802 34.181 192.952 32.4775 191.399 29.5684C189.897 26.8165 189.261 23.5405 189.261 18.3775C189.261 13.3193 189.897 10.1481 191.399 7.34384C193.028 4.43474 195.879 2.705 199.162 2.705M199.111 0.922852C193.41 0.922852 188.319 3.77954 185.723 8.49701C184.272 11.0654 183.458 14.6035 183.458 18.4823C183.458 24.1957 185.062 28.8083 188.192 31.8747C190.941 34.6265 194.759 36.0942 199.111 36.0942C203.209 36.0942 207.078 34.6527 209.852 32.1367C212.957 29.2801 214.841 24.2219 214.841 18.8492C214.841 13.4766 213.645 9.4667 211.023 6.32173C208.147 2.75742 203.998 0.922852 199.111 0.922852" fill="white"/>
<path d="M199.162 2.705C202.344 2.705 205.245 4.40854 206.798 7.21281C208.35 10.0171 208.961 13.3717 208.961 18.6396C208.961 28.7297 205.474 34.181 199.086 34.181C195.802 34.181 192.952 32.4775 191.399 29.5684C189.897 26.8165 189.261 23.5405 189.261 18.3775C189.261 13.3193 189.897 10.1481 191.399 7.34384C193.028 4.43474 195.879 2.705 199.162 2.705M199.111 0.922852C193.41 0.922852 188.319 3.77954 185.723 8.49701C184.272 11.0654 183.458 14.6035 183.458 18.4823C183.458 24.1957 185.062 28.8083 188.192 31.8747C190.941 34.6265 194.759 36.0942 199.111 36.0942C203.209 36.0942 207.078 34.6527 209.852 32.1367C212.957 29.2801 214.841 24.2219 214.841 18.8492C214.841 13.4766 213.645 9.4667 211.023 6.32173C208.147 2.75742 203.998 0.922852 199.111 0.922852" stroke="black" stroke-width="0.616667"/>
<path d="M179.106 35.0461V1.60449H173.71V17.0411H158.871V1.60449H153.45V35.0461H158.871V18.9543H173.71V35.0461H179.106Z" fill="white" stroke="black" stroke-width="0.616667"/>
<path d="M235.915 35.0459L247.776 3.88445V35.0459H253.146V1.57812H246.503L236.271 28.1794L226.014 1.57812H219.244V35.0459H221.382V3.85824L233.319 35.0459H235.915Z" fill="white" stroke="black" stroke-width="0.616667"/>
<path d="M259.28 1.57812V35.0459H278.42V33.1852H264.701V18.7445H278.445V16.8837H264.701V3.43891H278.395V1.57812H259.28Z" fill="white" stroke="black" stroke-width="0.616667"/>
</g>
<g clip-path="url(#clip2_332_24533)">
<path d="M334.286 11.3633L331.662 31.1404H324.33L319 0.0273438H325.71L328.524 22.7534H328.794L331.31 0.0273438H337.641L340.022 22.7534H340.32L343.079 0.0273438H349.654L344.216 31.1404H336.857L334.557 11.3633H334.286Z" fill="white"/>
<path d="M368.781 0.0273438V5.41125H360.016V12.5267H367.672V17.9106H360.016V25.7565H369.133V31.1404H353.441V0.0273438H368.781Z" fill="white"/>
<path d="M389.235 0.0273438V5.41125H380.469V12.5267H388.125V17.9106H380.469V25.7565H389.586V31.1404H373.895V0.0273438H389.235Z" fill="white"/>
<path d="M400.679 22.6452V31.1404H394.348V0.0273438H400.679V13.0678H401.004L406.198 0.0273438H413.097L407.172 12.9054L413.205 31.1404H406.198L402.762 19.2904L400.679 22.6452Z" fill="white"/>
<path d="M416.993 31.1404V0.0273438H427.517C432.685 0.0273438 435.012 2.51638 435.012 8.06262V23.4839C435.012 29.1654 430.98 31.1674 427.517 31.1674H416.993V31.1404ZM423.54 26.4599H425.137C427.869 26.4599 428.437 24.8636 428.437 23.5109V7.6568C428.437 6.30406 427.869 4.70782 425.137 4.70782H423.54V26.4599Z" fill="white"/>
<path d="M452.38 31.1401L451.515 25.2962H445.346L444.453 31.1401H437.987L443.615 0H453.49L459.117 31.1401H452.38ZM445.996 20.3993H450.892L448.809 5.16747H448.241L445.996 20.3993Z" fill="white"/>
<path d="M459.145 0.0273438H465.935L468.046 10.8493H468.478L470.724 0.0273438H477.379L471.536 18.2893V31.1404H464.988V18.8034L459.145 0.0273438Z" fill="white"/>
</g>
<g clip-path="url(#clip3_332_24533)">
<path d="M587.451 0.270548C578.252 0.270548 570.785 7.71062 570.785 16.8551C570.785 25.9455 578.252 33.3586 587.451 33.3586C596.649 33.3586 604.117 25.9455 604.117 16.8551C604.117 7.71062 596.649 0.270548 587.451 0.270548ZM587.451 28.9216C580.849 28.9216 575.466 23.4836 575.466 16.801C575.466 10.1185 580.849 4.68048 587.451 4.68048C594.052 4.68048 599.436 10.1185 599.436 16.801C599.436 23.4836 594.079 28.9216 587.451 28.9216ZM635.771 22.239L612.017 0V33.2774H616.643V10.5514L640.397 33.4127V0.324658H635.771M673.756 0.324658H667.452L654.736 13.1216V0.324658H650.11V33.2774H654.736V19.1548L654.925 18.9384L667.722 33.2774H674.08L658.199 15.7729M684.956 18.3973V0.324658H680.303L680.33 33.2774H684.956V28.9216C687.743 31.4106 692.153 33.2774 697.483 33.2774V29.1651C692.072 29.138 684.956 26.1349 684.956 18.3973ZM558.529 0.0811644L547.193 23.5106L535.911 0.135274L531.88 19.75C530.555 25.4045 522.709 29.0839 517.379 29.138V33.2774C521.681 33.2503 526.361 31.5729 529.986 28.9216L529.067 33.2774H533.801L537.508 14.2308L547.22 33.2774L556.717 13.9062L560.64 33.2774H565.374L558.529 0.0811644Z" fill="white"/>
</g>
<g clip-path="url(#clip4_332_24533)">
<path d="M777.906 14.1364C777.723 12.9123 776.897 12.6981 776.254 13.4631C773.745 16.2172 772.031 19.6139 771.327 23.286C771.144 26.6521 774.081 26.0401 775.581 24.0817C777.05 21.6948 778.365 19.2161 779.498 16.6456C780.049 15.5134 778.243 15.4522 777.906 14.014M821.727 14.5954C820.411 15.085 819.707 16.5232 820.197 17.8697C820.35 18.2675 820.595 18.6347 820.931 18.9407C821.819 17.9309 822.614 16.8598 823.379 15.7582C824.022 14.7178 823.594 13.5856 821.727 14.5954ZM787.699 10.0052C787.24 10.5561 786.475 11.3517 785.863 12.1473C785.495 12.4533 785.434 12.9735 785.74 13.3407C785.893 13.5243 786.138 13.6468 786.383 13.6468C787.791 13.4631 788.862 12.3003 788.923 10.8927C789.229 8.72001 788.403 9.05662 787.668 9.91345M793.238 1.6206C796.298 3.70146 791.095 7.61838 791.34 10.5561C791.34 11.4129 791.83 11.5047 792.932 10.9845C796.512 9.97465 801.745 7.09816 804.315 6.27194C804.743 6.02713 805.264 6.02713 805.692 6.27194C806.304 6.73095 806.58 7.55718 806.365 8.2916C805.508 10.8315 804.407 13.3101 803.06 15.6358C802.142 17.2883 801.316 19.0019 800.582 20.7462C800.215 21.7866 800.582 22.0314 801.439 21.3582C802.693 20.6238 804.193 18.1451 806.396 16.2478C807.314 15.2686 808.263 14.3506 809.303 13.4937C810.772 12.4533 812.944 10.7397 814.26 12.4227C814.536 13.7998 814.322 15.2074 813.587 16.4008C812.149 19.1243 811.139 22.0314 810.558 25.0303C810.527 25.3975 810.649 25.7953 810.894 26.0707C812.026 26.7133 814.383 25.2751 815.637 24.2959C816.372 23.7144 819.003 21.2358 819.462 20.7156C818.636 19.8893 818.055 18.8489 817.841 17.6861C817.841 15.5746 818.881 13.5856 820.595 12.3309C821.972 11.0763 824.114 11.1681 825.368 12.5145C826.654 14.7178 823.685 18.5429 822.431 20.1953C823.165 20.5932 824.267 19.9811 826.072 17.7167C829.622 12.7593 831.611 13.2795 831.366 16.8598C831.183 19.9811 831.366 20.2565 833.569 16.5232C835.803 12.8511 839.965 6.42494 842.75 6.30254C843.851 6.39434 844.739 7.28177 844.892 8.3834C845.596 9.91344 843.913 11.1375 843.117 9.45443C841.403 6.36374 835.62 18.0533 833.569 22.4598C831.183 27.4172 828.918 27.2641 828.918 22.827C828.918 19.4609 830.142 16.6762 826.715 20.9298C825.521 22.98 822.951 23.745 820.84 22.674C820.472 23.133 819.615 23.9899 819.401 24.2041C817.688 26.2237 815.607 27.8762 813.22 29.039C812.241 29.8652 810.925 30.1406 809.701 29.804C808.813 29.1002 808.201 28.121 807.957 27.0499C807.436 23.7144 809.915 20.0117 810.466 17.0741C810.466 16.6456 810.221 16.4008 809.64 16.7986C807.681 18.2981 805.906 20.0423 804.376 21.9702C803.611 22.9188 802.448 24.6019 802.204 24.9385C801.592 26.2543 800.092 26.8663 798.746 26.3767C797.675 25.2751 797.216 23.7144 797.46 22.1844C798.348 18.2675 801.714 13.8916 802.663 10.6479C802.724 10.4949 802.663 10.3113 802.479 10.2501C802.387 10.2195 802.295 10.2195 802.234 10.2501C800.704 10.7091 799.205 11.3211 797.736 12.0249C795.41 13.0347 790.575 14.9932 790.239 15.2686C789.015 19.5527 788.097 23.9287 787.485 28.3352C787.485 29.192 787.638 29.3756 787.913 29.3756C788.953 29.192 789.902 28.58 790.514 27.7232C791.799 26.0707 792.962 24.2959 794.003 22.4598C794.431 21.756 794.737 22.0314 794.982 22.2456C795.839 23.3472 795.716 24.9079 794.737 25.8871C793.207 28.5188 791.248 30.8445 788.923 32.7723C788.188 33.2313 787.27 33.3843 786.444 33.1395C785.22 31.8543 784.7 30.0488 785.067 28.3046C785.648 24.4183 787.821 16.156 787.821 15.85C787.821 15.544 785.067 17.1047 784.21 14.8708C784.149 14.6872 783.965 14.5648 783.751 14.626C783.69 14.626 783.659 14.6566 783.629 14.6872C782.711 15.238 781.946 16.0336 781.487 17.0129C779.528 21.2052 778.427 28.0904 773.959 29.7734C769.461 31.4565 766.89 27.2641 768.42 22.521C769.522 19.3691 771.052 16.3396 772.949 13.5856C774.387 11.5047 776.774 8.414 778.121 10.4643C778.243 10.8621 778.61 11.1375 779.039 11.1375C779.712 10.8927 780.477 10.8927 781.181 11.1375C781.487 11.4435 781.946 11.5965 782.374 11.4741C783.047 11.2599 783.69 10.9233 784.271 10.4643C786.995 7.98559 789.443 5.20091 791.585 2.17142C792.595 1.03919 792.901 1.4676 793.176 1.74301M919.589 15.238C917.997 16.7986 916.712 18.6041 915.702 20.5932C915.213 21.4194 914.937 22.3986 914.968 23.3472C916.682 21.756 918.212 20.0117 919.589 18.1145C920.813 16.3702 920.537 14.2894 919.589 15.085M926.963 27.3254C927.575 25.4893 929.534 28.6412 930.697 29.4674C931.86 30.2936 935.195 29.2532 931.584 23.3778C930.666 21.3276 929.32 19.5221 927.637 18.0839C926.963 18.0839 924.301 23.1024 919.65 26.9275C918.303 28.3964 916.192 28.9166 914.325 28.2434C913.897 27.8456 913.499 27.3866 913.193 26.8663C912.673 27.0805 907.287 29.6204 905.573 30.416C901.626 31.9461 899.698 27.2029 902.819 23.7756C903.278 23.2554 903.89 22.5822 904.411 21.9702C906.461 19.7669 907.991 17.1353 908.939 14.2894C909.123 13.0959 909.674 13.1877 910.225 13.9222L910.99 14.7178C911.694 15.544 911.418 15.9418 910.806 17.3189C910.011 18.8183 909.092 20.2259 908.052 21.5112C906.95 22.7964 905.91 24.1735 904.992 25.6423C904.319 27.0805 904.655 27.7844 905.604 27.7844C907.899 27.0193 910.133 26.1013 912.306 25.0303C912.306 24.1123 912.397 23.1636 912.642 22.2762C913.744 19.8281 915.09 17.4719 916.681 15.2992C917.691 13.6162 919.436 10.5561 921.547 11.1681C922.128 11.3211 922.618 11.7495 922.832 12.3309C923.077 12.9735 923.169 13.6774 923.016 14.3506C921.884 18.8489 919.191 22.7658 915.396 25.4281C916.131 26.7439 918.456 24.8773 919.16 24.2959C920.231 23.3778 921.241 22.368 922.159 21.297C927.973 14.779 926.566 12.7899 928.524 9.88284C931.707 5.26211 933.084 8.07739 932.013 9.11782C929.32 11.4129 928.708 15.3604 930.636 18.3287C932.625 20.838 934.216 23.6532 935.379 26.6215C936.664 30.5384 933.573 34.3024 930.268 32.8947C928.034 32.2827 926.566 30.1406 926.841 27.8456M879.777 23.0106C879.042 24.9079 879.96 25.4281 880.603 25.4587C882.072 25.1833 883.265 24.1123 883.694 22.7046C884.428 21.297 885.101 19.8281 885.683 18.3287C886.111 17.3801 884.612 17.5025 884 17.7473C881.949 18.8183 880.389 20.7156 879.777 23.0106ZM858.264 16.3396C858.999 16.8904 858.999 16.5844 859.58 15.697C861.753 12.1167 863.62 8.3222 865.119 4.40528C866.159 0.51897 857.775 3.30365 856.428 4.19108C852.144 6.94516 851.808 11.1681 858.203 16.3396M875.952 14.473L882.194 13.7386C882.959 13.7998 883.724 13.6468 884.398 13.3101C885.01 12.9429 885.713 12.7287 886.417 12.6369C887.917 12.4533 887.794 14.014 890.671 13.0653C891.987 12.7287 893.302 12.3003 894.557 11.7495C895.75 10.8315 897.158 10.1889 898.627 9.88284C899.147 9.94405 899.606 10.2807 899.882 10.7397C900.157 11.3517 900.738 11.7801 901.412 11.8413C903.34 12.0861 906.308 10.8009 907.654 11.2905C908.603 11.9943 908.817 13.3101 908.113 14.2588C907.899 14.5342 907.654 14.7484 907.348 14.9014C906.4 14.932 906.4 13.8916 905.145 13.8916C903.003 13.6774 900.83 14.1364 898.964 15.2074C898.168 16.156 897.587 17.3189 897.311 18.5429C896.332 21.6642 895.536 24.8161 894.924 28.0292C894.588 29.5592 893.333 30.5078 892.17 29.8346C891.16 28.886 890.885 27.4172 891.466 26.1931C892.109 23.9287 895.444 16.1866 895.322 15.1156C895.077 14.7178 894.618 14.5036 894.159 14.5954C892.935 14.779 891.742 15.1462 890.61 15.6358C889.539 15.9112 888.651 16.6762 888.223 17.6861C886.907 20.4402 886.417 21.6642 885.805 23.0106C885.01 24.9385 883.908 26.6827 882.47 28.2128C881.46 29.2838 879.716 30.9669 878.186 29.5286C874.269 25.6117 877.757 22.7658 880.358 18.1757C881.123 16.6762 881.582 16.615 879.869 16.4926C877.88 16.309 875.891 16.4008 873.932 16.7068C871.453 17.1659 871.851 16.7068 870.933 19.0019C870.046 20.7462 869.434 22.6128 869.067 24.5407C868.761 28.3046 870.872 27.509 872.524 24.2041C873.534 22.215 873.595 22.4904 874.238 23.0106C875.309 23.9593 875.126 24.6937 873.381 27.3866C872.739 28.6106 871.698 29.5898 870.413 30.1406C869.158 30.7221 867.689 30.1406 867.108 28.886C867.016 28.6718 866.955 28.4576 866.924 28.2434C866.343 25.2445 866.771 22.1232 868.087 19.3997C868.516 18.5429 868.822 17.5943 868.944 16.6456C868.944 14.9932 863.405 19.9811 857.469 26.5603C856.214 28.0904 854.715 29.4368 853.032 30.4772C851.838 31.4565 850.094 31.2729 849.145 30.0794C849.084 30.0182 849.054 29.957 848.992 29.8958C847.493 27.8762 850.675 26.5603 851.349 26.0095C855.847 22.9494 856.275 21.909 856.214 20.4708C856.061 16.615 848.472 14.5648 849.972 8.01619C851.318 2.26322 860.376 0.0293561 861.753 0.0293561C865.241 -0.399056 870.046 1.83481 866.771 6.51675C864.568 9.79104 862.426 13.1571 860.529 16.6762C859.794 18.4511 860.957 18.9713 862.059 18.0839C862.426 17.8085 868.393 12.5451 872.096 8.68941C874.666 5.93533 877.635 6.48614 876.135 9.08722C875.187 10.7091 874.697 11.5965 873.963 12.7899C872.677 14.932 872.371 14.932 875.921 14.4118M911.938 7.37357C912.703 6.57795 914.968 5.20091 915.182 7.61838C915.304 8.5058 915.029 9.39323 914.448 10.0971C913.009 11.9943 910.225 9.30143 911.938 7.34297M748.254 6.30254C746.418 8.5058 746.418 10.6785 747.397 14.2588C747.397 15.1462 747.734 16.003 748.346 16.6762C749.233 16.0642 750.029 15.2992 750.672 14.4424C752.691 12.6063 753.609 9.85224 753.12 7.15936C752.232 4.09927 749.907 4.55829 748.254 6.30254ZM744.949 25.3975C746.235 24.6019 747.459 23.745 748.621 22.827C748.224 22.1538 747.795 21.5112 747.306 20.8992C747.306 20.8992 744.001 23.9899 743.48 24.6325C741.981 26.1013 741.95 27.2335 744.949 25.3975ZM744.154 20.4402C744.888 19.9199 745.531 19.2773 746.082 18.5735C745.806 17.4413 745.47 16.309 745.072 15.2074C742.103 8.07739 747.826 -0.766267 753.365 3.51786C756.455 6.21074 756.792 10.9233 754.068 14.014C754.007 14.1058 753.915 14.167 753.854 14.2588C752.875 15.6052 749.601 18.7877 749.631 18.9713C749.784 19.3997 749.968 19.8281 750.213 20.2259C750.427 20.7156 750.794 21.144 751.253 21.3888C751.896 21.1134 752.477 20.7462 753.059 20.3483C754.068 20.0423 754.833 19.1855 755.078 18.1757C755.139 17.5943 755.629 17.1659 756.21 17.2271C756.241 17.2271 756.272 17.2271 756.302 17.2271L757.771 18.0227C758.444 18.6347 758.536 19.6751 757.924 20.3789C757.863 20.4402 757.832 20.4708 757.771 20.532C756.669 21.4194 755.445 22.0926 754.13 22.5822C753.579 22.827 753.059 23.133 752.6 23.5002C753.426 24.7855 754.374 26.0095 755.354 27.1417C757.557 29.8958 758.689 31.7625 761.596 30.5996C761.933 30.4772 762.3 30.5996 762.453 30.9363C762.606 31.1199 762.728 31.3035 762.851 31.5177C763.065 31.9155 762.973 32.4051 762.637 32.6805C758.261 34.5778 755.476 31.7625 752.814 28.3658C752.018 27.1723 751.131 26.0707 750.151 25.0303C749.937 25.0303 745.806 28.0904 743.848 29.345C741.92 30.569 739.258 31.2117 738.095 29.498C736.503 27.1417 740.879 23.439 744.154 20.4402Z" fill="white"/>
</g>
<path fill-rule="evenodd" clip-rule="evenodd" d="M1051.46 25.3976L1048.22 29.1663C1051.21 32.4843 1055.47 34 1059.94 34C1066.24 34 1071.98 30.0675 1071.98 24.0867C1071.98 12.9036 1053.83 15.7711 1053.83 8.93012C1053.83 6.14458 1056.54 4.83374 1060.02 4.83374C1062.89 4.83374 1065.71 6.14458 1067.64 7.66024L1070.22 3.68675C1067.31 1.31084 1063.66 0 1059.94 0C1054.45 0 1048.88 3.19518 1048.88 9.05301C1048.88 20.2361 1067.02 17.4096 1067.02 24.1277C1067.02 27.6096 1063.46 29.1663 1059.94 29.1663C1056.74 29.1253 1053.34 27.2819 1051.46 25.3976Z" fill="white"/>
<path fill-rule="evenodd" clip-rule="evenodd" d="M1026.63 29.1253C1033.23 29.1253 1038.64 23.4723 1038.64 17C1038.64 10.4458 1033.23 4.8747 1026.63 4.8747C1020.04 4.8747 1014.55 10.4458 1014.55 17C1014.51 23.5133 1020 29.1253 1026.63 29.1253ZM1026.55 0C1035.97 0 1043.55 7.61928 1043.55 17C1043.55 26.3807 1035.97 34 1026.55 34C1017.21 34 1009.55 26.3807 1009.55 17C1009.55 7.61928 1017.21 0 1026.55 0Z" fill="white"/>
<path fill-rule="evenodd" clip-rule="evenodd" d="M1005.82 5.69398C1002.71 2.13012 998.162 0 992.96 0C983.538 0 975.96 7.53735 975.96 17C975.96 26.4627 983.538 34 992.96 34C998.244 34 1002.87 31.747 1005.99 28.1831L1002.26 24.988C1000.09 27.5687 996.77 29.1663 993.001 29.1663C986.447 29.1663 980.958 23.5952 980.958 17.041C980.958 10.4867 986.447 4.91566 993.001 4.91566C996.77 4.91566 1000.01 6.55422 1002.26 9.13494L1005.82 5.69398Z" fill="white"/>
<g clip-path="url(#clip5_332_24533)">
<path d="M1134.54 24.2423H1119.27L1116.22 32.6419H1112.09L1123.85 0.112305H1129.96L1141.72 32.7946H1137.44L1134.54 24.2423V24.2423ZM1133.17 20.5769L1126.91 3.16672L1120.65 20.5769H1133.17V20.5769ZM1169.52 32.7946H1164.93C1163.41 30.8092 1163.1 28.0601 1163.1 26.2275C1163.1 23.6312 1163.56 21.4933 1161.27 19.6606H1149.97V32.9473H1145.84V0.112305H1157.76C1164.63 0.112305 1169.21 3.47209 1169.21 9.73373C1169.21 14.6209 1166.61 17.0644 1162.95 17.8279C1167.23 19.0497 1167.23 22.715 1167.38 25.9222C1167.38 28.2129 1167.84 30.962 1169.52 32.7946V32.7946ZM1157.76 15.6899C1162.64 15.6899 1164.93 13.3991 1164.93 9.58093C1164.93 5.91567 1162.64 3.77746 1157.76 3.77746H1149.97V15.6898H1157.76V15.6899ZM1195.17 23.3259C1196.55 26.6857 1198.07 30.1985 1199.91 32.7946H1195.33C1193.65 30.6564 1192.27 26.533 1191.05 23.6313L1187.38 14.6208L1179.14 23.0204V32.7945H1175.01V0.112305H1179.14V17.2172L1195.94 0.112305H1201.59L1190.59 11.4137L1195.17 23.3259ZM1209.38 3.77757V14.0099H1226.18V17.6753H1209.38V28.824H1228.01V32.4893H1205.25V0.112305H1228.01V3.77757H1209.38ZM1258.86 3.77757H1247.25V32.7947H1243.13V3.77757H1231.52V0.112305H1259.01V3.77757H1258.86Z" fill="white"/>
</g>
<g clip-path="url(#clip6_332_24533)">
<path d="M1328.5 5.36605V14.8186H1337.19V19.7237H1328.5V34.5412H1322.58V0.460938H1338.62V5.36605H1328.5Z" fill="white"/>
<path d="M1354.05 26.2117V8.78832C1354.05 6.43796 1353.13 4.90511 1350.63 4.90511C1348.17 4.90511 1347.2 6.43796 1347.2 8.78832V26.2628C1347.2 28.6131 1348.12 30.146 1350.63 30.146C1353.13 30.0949 1354.05 28.562 1354.05 26.2117ZM1341.23 25.7007V9.29927C1341.23 3.93431 1344.44 0 1350.68 0C1356.86 0 1360.13 3.93431 1360.13 9.29927V25.7007C1360.13 31.0657 1356.91 35 1350.68 35C1344.44 35 1341.23 31.0657 1341.23 25.7007Z" fill="white"/>
<path d="M1364.06 25.7018V0.460938H1369.99V26.2128C1369.99 28.5631 1370.86 30.096 1373.31 30.096C1375.77 30.096 1376.63 28.5631 1376.63 26.2128V0.460938H1382.56V25.7018C1382.56 31.0668 1379.44 35.0011 1373.31 35.0011C1367.18 35.0011 1364.06 31.0668 1364.06 25.7018Z" fill="white"/>
<path d="M1386.85 0.460938H1393.8L1400.55 21.8186H1400.65V0.460938H1406.12V34.4901H1399.53L1392.37 11.9062H1392.27V34.4901H1386.8L1386.85 0.460938Z" fill="white"/>
<path d="M1423.08 9.19816C1423.08 6.89889 1422.11 5.36605 1419.66 5.36605H1416.49V29.6361H1419.66C1422.06 29.6361 1423.08 28.1033 1423.08 25.804V9.19816ZM1429.11 9.76021V25.1909C1429.11 30.5558 1425.99 34.4901 1419.66 34.4901H1410.56V0.460938H1419.66C1425.99 0.460938 1429.11 4.39524 1429.11 9.76021Z" fill="white"/>
<path d="M1306.23 15.1763L1308.47 3.73101L1310.72 15.1763H1306.23ZM1312.61 26.4171H1318.18L1313.17 0.460938H1304.18L1299.12 26.4171H1304.33L1305.51 19.5704H1311.49L1312.61 26.4171Z" fill="white"/>
<path d="M1299.12 34.5409H1318.23V29.9424H1299.12V34.5409Z" fill="white"/>
</g>
<defs>
<clipPath id="clip0_332_24533">
<rect width="54" height="35.6229" fill="white"/>
</clipPath>
<clipPath id="clip1_332_24533">
<rect width="185" height="37" fill="white" transform="translate(94)"/>
</clipPath>
<clipPath id="clip2_332_24533">
<rect width="158.379" height="31.1671" fill="white" transform="translate(319)"/>
</clipPath>
<clipPath id="clip3_332_24533">
<rect width="180.104" height="33.4127" fill="white" transform="translate(517.379)"/>
</clipPath>
<clipPath id="clip4_332_24533">
<rect width="198.477" height="33.2632" fill="white" transform="translate(737.482)"/>
</clipPath>
<clipPath id="clip5_332_24533">
<rect width="147.144" height="33" fill="white" transform="translate(1111.98)"/>
</clipPath>
<clipPath id="clip6_332_24533">
<rect width="129.985" height="35" fill="white" transform="translate(1299.12)"/>
</clipPath>
</defs>
</svg>
