<svg width="40" height="40" viewBox="0 0 40 40" fill="none" xmlns="http://www.w3.org/2000/svg">
<rect width="40" height="40" fill="#FFF9E4" fill-opacity="0.06"/>
<path fill-rule="evenodd" clip-rule="evenodd" d="M19.9998 8C21.5558 8 22.9345 8.78857 23.9117 9.90722C24.8877 11.0245 25.4996 12.5098 25.4996 13.9842C25.4996 15.4583 24.8231 17.1878 23.8421 18.5415C22.8741 19.8773 21.4941 21 19.9998 21C18.522 21 17.1419 19.9812 16.1622 18.6727C15.1719 17.3502 14.5 15.6185 14.5 13.9842C14.5 10.7377 16.9191 8 19.9998 8ZM19.9998 9C17.5579 9 15.5 11.1993 15.5 13.9842C15.5 15.3657 16.078 16.8919 16.9626 18.0733C17.8577 19.2688 18.9776 20 19.9998 20C21.0057 20 22.1256 19.2061 23.0324 17.9547C23.9263 16.7211 24.4996 15.1927 24.4996 13.9842C24.4996 12.7761 23.9922 11.5194 23.1586 10.5651C22.3263 9.61229 21.2051 9 19.9998 9Z" fill="#FFF9E4"/>
<path d="M16.5 21.5C16.5 21.7761 16.2761 22 16 22L15.8054 22.0045L15.5438 22.0195L15.2225 22.0474C15.1644 22.0533 15.104 22.0598 15.0417 22.067C14.3136 22.151 13.5866 22.302 12.9136 22.535C11.1402 23.1488 10.09 24.1883 10.0055 25.7881L10 26V30.5C10 30.7761 9.77614 31 9.5 31C9.25454 31 9.05039 30.8231 9.00806 30.5899L9 30.5V26C9 23.783 10.3744 22.3557 12.5864 21.59C13.3353 21.3308 14.1317 21.1654 14.9271 21.0736C15.1123 21.0522 15.2889 21.0359 15.455 21.024L15.7951 21.005L16 21C16.2761 21 16.5 21.2239 16.5 21.5Z" fill="#FFF9E4"/>
<path d="M24.2049 21.005L24 21C23.7239 21 23.5 21.2239 23.5 21.5C23.5 21.7761 23.7239 22 24 22C24.0264 22 24.056 22.0003 24.0885 22.0011L24.3174 22.0105L24.6098 22.0317L24.9583 22.067C25.6863 22.151 26.4134 22.302 27.0864 22.535C28.9368 23.1755 29.9999 24.2795 29.9999 26L30 30.5C30 30.7761 30.2239 31 30.5 31C30.7761 31 31 30.7761 31 30.5L30.9999 26L30.9947 25.7655C30.9007 23.6819 29.5465 22.3284 27.4135 21.59C26.6646 21.3308 25.8683 21.1654 25.0729 21.0736C24.7951 21.0415 24.5367 21.0209 24.304 21.0094L24.2049 21.005Z" fill="#FFF9E4"/>
</svg>
