<svg width="40" height="40" viewBox="0 0 40 40" fill="none" xmlns="http://www.w3.org/2000/svg">
<rect width="40" height="40" fill="#FFF9E4" fill-opacity="0.06"/>
<path fill-rule="evenodd" clip-rule="evenodd" d="M8.29289 23.7929C7.90237 24.1834 7.90237 24.8166 8.29289 25.2071L14.7929 31.7071C14.9804 31.8946 15.2348 32 15.5 32C15.7652 32 16.0196 31.8946 16.2071 31.7071L31.7071 16.2071C32.0976 15.8166 32.0976 15.1834 31.7071 14.7929L25.2071 8.29289C24.8166 7.90237 24.1834 7.90237 23.7929 8.29289L8.29289 23.7929ZM15.5 31L9 24.5L10.3964 23.1036L13.1463 25.8536C13.3416 26.0488 13.6581 26.0488 13.8534 25.8536C14.0487 25.6583 14.0487 25.3417 13.8534 25.1465L11.1035 22.3965L12.3964 21.1036L13.1463 21.8536C13.3416 22.0488 13.6581 22.0488 13.8534 21.8536C14.0487 21.6583 14.0487 21.3417 13.8534 21.1465L13.1035 20.3965L14.3964 19.1036L17.1463 21.8536C17.3416 22.0488 17.6581 22.0488 17.8534 21.8536C18.0487 21.6583 18.0487 21.3417 17.8534 21.1465L15.1035 18.3965L16.3964 17.1036L17.1463 17.8536C17.3416 18.0488 17.6581 18.0488 17.8534 17.8536C18.0487 17.6583 18.0487 17.3417 17.8534 17.1465L17.1035 16.3965L18.3964 15.1036L21.1463 17.8536C21.3416 18.0488 21.6581 18.0488 21.8534 17.8536C22.0487 17.6583 22.0487 17.3417 21.8534 17.1465L19.1035 14.3965L20.3964 13.1036L21.1463 13.8536C21.3416 14.0488 21.6581 14.0488 21.8534 13.8536C22.0487 13.6583 22.0487 13.3417 21.8534 13.1465L21.1035 12.3965L22.3964 11.1036L25.1463 13.8536C25.3416 14.0488 25.6581 14.0488 25.8534 13.8536C26.0487 13.6583 26.0487 13.3417 25.8534 13.1465L23.1035 10.3965L24.5 9L31 15.5L15.5 31Z" fill="#FFF9E4"/>
</svg>
