<svg width="40" height="40" viewBox="0 0 40 40" fill="none" xmlns="http://www.w3.org/2000/svg">
<rect width="40" height="40" fill="#FFF9E4" fill-opacity="0.06"/>
<path fill-rule="evenodd" clip-rule="evenodd" d="M12.1789 23.5134C12.2288 23.3731 12.3094 23.2458 12.4147 23.1406L26.2938 9.29211C26.6844 8.90232 27.317 8.90267 27.7072 9.29289L29.7072 11.2929C30.0978 11.6834 30.0978 12.3166 29.7072 12.7071L15.8272 26.5872C15.7229 26.6915 15.5968 26.7714 15.458 26.8212L12.338 27.9412C11.9742 28.0718 11.5678 27.981 11.2941 27.7081C11.0204 27.4352 10.9285 27.029 11.058 26.6649L12.1789 23.5134ZM13.1211 23.8485L24.6439 12.351L26.6465 14.3536L15.1201 25.8801L12.0002 27L13.1211 23.8485ZM27.3536 13.6465L25.3518 11.6447L27.0001 10L29.0001 12L27.3536 13.6465Z" fill="#FFF9E4"/>
<path d="M10.5 29C10.2239 29 10 29.2239 10 29.5C10 29.7761 10.2239 30 10.5 30H29.5C29.7761 30 30 29.7761 30 29.5C30 29.2239 29.7761 29 29.5 29H10.5Z" fill="#FFF9E4"/>
</svg>
