<svg width="1597" height="584" viewBox="0 0 1597 584" fill="none" xmlns="http://www.w3.org/2000/svg">
<g clip-path="url(#clip0_332_24534)">
<path d="M293.645 187.755C296.831 186.19 298.41 186.396 298.446 187.982C298.488 190.042 298.184 192.782 297.964 194.765C296.782 205.541 294.806 214.346 294.658 225.41C299.862 211.937 304.223 202.573 309.845 191.041C311.629 187.366 312.769 188.053 314.235 187.401C319.942 184.859 320.154 186.417 319.411 189.525C316.642 201.038 309.555 237.287 308.472 242.869C308.16 244.484 306.404 243.799 305.951 243.167C303.919 240.357 301.625 240.313 301.88 238.443C303.154 229.137 307.742 205.789 308.939 200.288C302.842 212.786 296.52 228.41 293.27 237.269C292.583 239.151 291.33 239.013 290.551 237.636C289.453 235.703 287.322 234.715 286.968 232.431C285.857 225.166 288.243 211.32 288.575 202.56C285.255 212.129 279.682 230.707 277.24 239.101C276.234 242.574 272.878 242.007 273.77 238.622C277.48 224.536 285.474 199.622 288.929 190.665C289.744 188.555 291.875 188.626 293.645 187.755M273.409 186.028C272.333 185.766 269.211 187.451 267.292 187.783C266.683 187.89 266.102 188.534 265.897 188.994C262.824 196.053 260.07 202.783 257.684 208.913C254.632 209.434 251.064 210.12 247.07 211.017C249.931 203.68 252.819 196.443 255.637 189.483C257.025 186.056 253.372 185.73 251.956 189.2C250.115 193.71 246.666 202.16 242.85 212.01C240.046 212.697 237.073 213.483 233.964 214.381C231.705 215.033 231.613 215.635 232.591 216.99C233.129 217.744 234.24 217.668 234.75 218.205C236.067 219.598 236.867 221.264 239.225 221.516C237.122 227.141 235.019 232.942 233.114 238.528C231.918 242.034 235.324 242.752 236.633 239.041C238.743 233.061 240.967 227.007 243.254 220.972C245.158 220.53 249.768 219.537 254.023 218.614C250.646 227.87 248.422 234.901 247.58 238.323C247.424 238.981 247.686 239.346 247.828 239.615C248.967 241.274 250.051 241.342 251.516 243.393C251.913 243.952 253.244 244.254 253.697 242.877C256.827 233.424 260.048 224.554 263.05 216.603C264.297 216.33 266.541 215.788 267.915 213.739C270.357 210.101 271.058 210.838 271.646 209.732C272.382 208.344 271.894 207.04 269.288 207.363C269.288 207.363 268.304 207.433 266.484 207.64C269.373 200.202 271.901 193.893 273.721 189.086C274.344 187.458 274.422 186.268 273.409 186.028" fill="#D1D1D1" fill-opacity="0.5"/>
<path d="M269.147 234.27C269.82 235.97 271.923 235.455 271.123 233.403C270.308 231.313 268.283 225.02 267.752 222.993C267.03 220.262 270.16 221.009 268.574 222.795C267.214 224.33 266.308 224.945 263.794 227.865C261.366 230.684 262.024 234.342 264.623 235.15C267.554 236.062 270.139 232.832 271.739 230.462C273.289 228.167 271.788 226.821 270.223 228.178C269.218 229.05 268.057 230.39 266.881 231.112C265.926 231.693 265.175 231.069 266.45 229.314C267.929 227.283 269.586 225.581 270.818 223.661C273.332 219.749 268.361 217.494 266.223 220.035C265.076 221.39 265.366 222.72 265.678 223.861C266.181 225.689 268.05 231.525 269.147 234.27" fill="#D1D1D1" fill-opacity="0.5"/>
</g>
<g clip-path="url(#clip1_332_24534)">
<path d="M445.916 189.629C448.976 188.054 450.505 188.267 450.547 189.842C450.588 191.886 450.299 194.61 450.092 196.569C448.934 207.254 447.032 215.982 446.908 226.966C451.911 213.598 456.128 204.317 461.545 192.865C463.281 189.204 464.356 189.885 465.762 189.246C471.261 186.734 471.467 188.267 470.765 191.332C468.077 202.742 461.255 238.716 460.222 244.25C459.932 245.868 458.237 245.187 457.782 244.548C455.839 241.738 453.606 241.696 453.854 239.865C455.095 230.627 459.519 207.467 460.635 202.018C454.764 214.407 448.645 229.903 445.544 238.716C444.882 240.589 443.683 240.461 442.939 239.099C441.864 237.183 439.838 236.204 439.508 233.948C438.433 226.753 440.748 213.002 441.037 204.317C437.854 213.811 432.479 232.245 430.122 240.589C429.13 244.037 425.905 243.484 426.773 240.121C430.329 226.157 438.061 201.422 441.368 192.524C442.154 190.396 444.221 190.481 445.916 189.629" fill="#D1D1D1" fill-opacity="0.5"/>
<path d="M426.402 187.879C425.368 187.624 422.35 189.284 420.489 189.625C419.91 189.71 419.332 190.391 419.166 190.817C416.189 197.841 413.543 204.483 411.269 210.57C408.334 211.081 404.902 211.763 401.057 212.657C403.827 205.377 406.597 198.182 409.326 191.285C410.649 187.879 407.135 187.581 405.77 191.03C403.951 195.5 400.643 203.887 396.964 213.678C394.276 214.359 391.382 215.126 388.405 216.02C386.214 216.658 386.131 217.254 387.082 218.617C387.62 219.383 388.695 219.298 389.15 219.809C390.431 221.171 391.175 222.831 393.449 223.087C391.424 228.664 389.398 234.411 387.578 239.946C386.421 243.437 389.728 244.118 390.969 240.457C392.995 234.539 395.145 228.536 397.336 222.533C399.155 222.108 403.62 221.129 407.714 220.192C404.447 229.388 402.297 236.37 401.512 239.733C401.346 240.371 401.594 240.755 401.76 241.01C402.876 242.67 403.91 242.713 405.316 244.756C405.688 245.31 406.969 245.608 407.424 244.246C410.442 234.88 413.543 226.067 416.437 218.191C417.636 217.936 419.786 217.382 421.109 215.339C423.466 211.72 424.128 212.444 424.706 211.379C425.409 210.017 424.954 208.697 422.432 209.038C422.432 209.038 421.481 209.123 419.745 209.293C422.515 201.928 424.954 195.67 426.732 190.902C427.311 189.327 427.394 188.135 426.402 187.879" fill="#D1D1D1" fill-opacity="0.5"/>
<path d="M419.909 232.539C419 233.092 418.255 232.496 419.496 230.751C419.703 230.453 419.909 230.197 420.116 229.899C420.323 230.538 420.529 231.219 420.736 231.9C420.488 232.156 420.199 232.369 419.909 232.539M421.522 224.322C421.315 224.578 421.067 224.833 420.86 225.046C420.819 224.833 420.778 224.663 420.736 224.535C420.075 221.853 423.051 222.577 421.522 224.322M423.134 229.644C422.927 229.814 422.721 230.027 422.473 230.282C422.225 229.474 421.977 228.665 421.728 227.898C422.431 227.004 423.134 226.11 423.713 225.216C426.111 221.342 421.356 219.128 419.33 221.64C418.255 222.96 418.504 224.28 418.793 225.429C418.876 225.77 419.041 226.281 419.206 226.877C418.628 227.515 417.925 228.282 416.974 229.388C414.658 232.156 415.279 235.774 417.759 236.583C419.289 237.052 420.695 236.37 421.894 235.263C421.935 235.434 422.018 235.604 422.059 235.732C422.721 237.392 424.705 236.881 423.961 234.88C423.837 234.54 423.672 234.071 423.465 233.518C423.878 233.007 424.209 232.496 424.54 231.985C426.07 229.644 424.623 228.324 423.134 229.644" fill="#D1D1D1" fill-opacity="0.5"/>
<path d="M555.521 190.394C560.689 190.394 565.403 193.161 567.925 197.717C570.447 202.272 571.439 207.721 571.439 216.278C571.439 232.669 565.775 241.524 555.397 241.524C550.064 241.524 545.433 238.757 542.911 234.031C540.472 229.561 539.438 224.239 539.438 215.853C539.438 207.636 540.472 202.485 542.911 197.929C545.557 193.204 550.188 190.394 555.521 190.394M555.439 187.499C546.177 187.499 537.908 192.139 533.691 199.803C531.334 203.975 530.011 209.722 530.011 216.023C530.011 225.304 532.616 232.797 537.701 237.778C542.167 242.248 548.369 244.632 555.439 244.632C562.095 244.632 568.38 242.29 572.886 238.203C577.93 233.563 580.99 225.346 580.99 216.619C580.99 207.891 579.047 201.378 574.788 196.269C570.116 190.479 563.377 187.499 555.439 187.499" fill="#D1D1D1" fill-opacity="0.5"/>
<path d="M522.942 242.929V188.606H514.177V213.682H490.073V188.606H481.266V242.929H490.073V216.79H514.177V242.929H522.942Z" fill="#D1D1D1" fill-opacity="0.5"/>
<path d="M615.223 242.929L634.49 192.31V242.929H643.214V188.563H632.423L615.802 231.775L599.14 188.563H588.142V242.929H591.615V192.267L611.006 242.929H615.223Z" fill="#D1D1D1" fill-opacity="0.5"/>
<path d="M653.178 188.563V242.929H684.269V239.906H661.984V216.449H684.311V213.426H661.984V191.586H684.228V188.563H653.178Z" fill="#D1D1D1" fill-opacity="0.5"/>
</g>
<g clip-path="url(#clip2_332_24534)">
<path d="M775.02 204.459L770.757 236.585H758.847L750.189 186.045H761.088L765.659 222.961H766.098L770.185 186.045H780.469L784.337 222.961H784.82L789.303 186.045H799.982L791.149 236.585H779.195L775.459 204.459H775.02Z" fill="#D1D1D1" fill-opacity="0.5"/>
<path d="M831.053 186.045V194.791H816.814V206.349H829.251V215.095H816.814V227.84H831.625V236.585H806.135V186.045H831.053Z" fill="#D1D1D1" fill-opacity="0.5"/>
<path d="M864.278 186.045V194.791H850.039V206.349H862.476V215.095H850.039V227.84H864.849V236.585H839.359V186.045H864.278Z" fill="#D1D1D1" fill-opacity="0.5"/>
<path d="M882.868 222.786V236.585H872.584V186.045H882.868V207.228H883.395L891.833 186.045H903.04L893.415 206.964L903.216 236.585H891.833L886.252 217.336L882.868 222.786Z" fill="#D1D1D1" fill-opacity="0.5"/>
<path d="M909.369 236.585V186.045H926.465C934.859 186.045 938.639 190.088 938.639 199.098V224.148C938.639 233.377 932.09 236.629 926.465 236.629H909.369V236.585ZM920.005 228.982H922.598C927.036 228.982 927.959 226.389 927.959 224.192V198.438C927.959 196.241 927.036 193.648 922.598 193.648H920.005V228.982Z" fill="#D1D1D1" fill-opacity="0.5"/>
<path d="M966.853 236.584L965.446 227.092H955.426L953.976 236.584H943.472L952.613 186H968.654L977.796 236.584H966.853ZM956.481 219.137H964.435L961.051 194.394H960.129L956.481 219.137Z" fill="#D1D1D1" fill-opacity="0.5"/>
<path d="M977.841 186.045H988.872L992.3 203.624H993.003L996.651 186.045H1007.46L997.969 215.71V236.585H987.334V216.545L977.841 186.045Z" fill="#D1D1D1" fill-opacity="0.5"/>
</g>
<g clip-path="url(#clip3_332_24534)">
<path d="M1186.26 186.439C1171.32 186.439 1159.19 198.525 1159.19 213.38C1159.19 228.146 1171.32 240.188 1186.26 240.188C1201.21 240.188 1213.33 228.146 1213.33 213.38C1213.33 198.525 1201.21 186.439 1186.26 186.439ZM1186.26 232.981C1175.54 232.981 1166.79 224.147 1166.79 213.292C1166.79 202.437 1175.54 193.603 1186.26 193.603C1196.99 193.603 1205.73 202.437 1205.73 213.292C1205.73 224.147 1197.03 232.981 1186.26 232.981ZM1264.75 222.125L1226.17 186V240.056H1233.68V203.14L1272.27 240.276V186.527H1264.75M1326.46 186.527H1316.22L1295.56 207.315V186.527H1288.05V240.056H1295.56V217.115L1295.87 216.764L1316.66 240.056H1326.98L1301.19 211.622M1344.65 215.885V186.527H1337.09L1337.14 240.056H1344.65V232.981C1349.18 237.024 1356.34 240.056 1365 240.056V233.376C1356.21 233.332 1344.65 228.454 1344.65 215.885ZM1139.28 186.132L1120.87 224.191L1102.54 186.22L1095.99 218.082C1093.84 227.267 1081.09 233.244 1072.44 233.332V240.056C1079.42 240.012 1087.03 237.288 1092.92 232.981L1091.42 240.056H1099.11L1105.13 209.117L1120.91 240.056L1136.34 208.589L1142.71 240.056H1150.4L1139.28 186.132Z" fill="#D1D1D1" fill-opacity="0.5"/>
</g>
<g clip-path="url(#clip4_332_24534)">
<path d="M297.666 363.283C297.367 361.295 296.025 360.947 294.981 362.189C290.905 366.663 288.122 372.181 286.978 378.146C286.68 383.614 291.452 382.62 293.888 379.438C296.274 375.561 298.411 371.535 300.25 367.359C301.145 365.52 298.212 365.42 297.666 363.084M368.848 364.029C366.711 364.824 365.567 367.16 366.363 369.347C366.611 369.994 367.009 370.59 367.556 371.087C368.997 369.447 370.29 367.707 371.532 365.918C372.576 364.227 371.88 362.388 368.848 364.029ZM313.572 356.572C312.827 357.467 311.584 358.76 310.59 360.052C309.993 360.549 309.894 361.394 310.391 361.991C310.64 362.289 311.037 362.488 311.435 362.488C313.721 362.189 315.461 360.3 315.561 358.014C316.058 354.485 314.716 355.031 313.523 356.423M322.57 342.952C327.54 346.332 319.09 352.695 319.488 357.467C319.488 358.859 320.283 359.008 322.072 358.163C327.888 356.523 336.389 351.85 340.564 350.508C341.26 350.11 342.105 350.11 342.801 350.508C343.795 351.254 344.242 352.596 343.894 353.789C342.503 357.914 340.713 361.941 338.526 365.719C337.035 368.403 335.693 371.187 334.5 374.02C333.903 375.71 334.5 376.108 335.891 375.014C337.929 373.821 340.365 369.795 343.944 366.713C345.435 365.122 346.976 363.631 348.667 362.239C351.053 360.549 354.582 357.765 356.719 360.499C357.167 362.736 356.819 365.023 355.626 366.961C353.289 371.385 351.649 376.108 350.705 380.979C350.655 381.576 350.854 382.222 351.251 382.669C353.091 383.713 356.918 381.377 358.956 379.786C360.149 378.842 364.424 374.815 365.17 373.97C363.828 372.628 362.883 370.938 362.535 369.049C362.535 365.619 364.225 362.388 367.009 360.35C369.246 358.312 372.725 358.461 374.763 360.648C376.851 364.227 372.03 370.441 369.991 373.125C371.184 373.771 372.974 372.777 375.907 369.099C381.673 361.046 384.904 361.891 384.506 367.707C384.208 372.777 384.506 373.225 388.085 367.16C391.714 361.195 398.474 350.756 402.998 350.558C404.787 350.707 406.229 352.148 406.478 353.938C407.621 356.423 404.887 358.412 403.594 355.678C400.811 350.657 391.416 369.646 388.085 376.804C384.208 384.856 380.53 384.608 380.53 377.4C380.53 371.932 382.518 367.409 376.951 374.318C375.012 377.649 370.837 378.891 367.407 377.152C366.81 377.897 365.418 379.289 365.07 379.637C362.287 382.918 358.906 385.602 355.029 387.491C353.439 388.833 351.301 389.281 349.313 388.734C347.871 387.59 346.877 386 346.479 384.26C345.634 378.842 349.661 372.827 350.555 368.055C350.555 367.359 350.158 366.961 349.213 367.608C346.032 370.043 343.149 372.877 340.663 376.008C339.421 377.549 337.532 380.283 337.134 380.83C336.14 382.968 333.704 383.962 331.517 383.166C329.777 381.377 329.032 378.842 329.429 376.356C330.871 369.994 336.339 362.885 337.88 357.616C337.979 357.368 337.88 357.069 337.582 356.97C337.432 356.92 337.283 356.92 337.184 356.97C334.698 357.716 332.263 358.71 329.877 359.853C326.099 361.493 318.245 364.675 317.698 365.122C315.71 372.081 314.219 379.19 313.224 386.348C313.224 387.74 313.473 388.038 313.92 388.038C315.61 387.74 317.151 386.745 318.145 385.354C320.233 382.669 322.122 379.786 323.812 376.804C324.508 375.66 325.005 376.108 325.403 376.456C326.795 378.245 326.596 380.78 325.005 382.371C322.52 386.646 319.338 390.424 315.561 393.555C314.368 394.301 312.876 394.55 311.534 394.152C309.546 392.064 308.701 389.131 309.297 386.298C310.242 379.985 313.771 366.564 313.771 366.067C313.771 365.57 309.297 368.105 307.906 364.476C307.806 364.178 307.508 363.979 307.16 364.078C307.06 364.078 307.011 364.128 306.961 364.178C305.47 365.073 304.227 366.365 303.481 367.956C300.3 374.766 298.511 385.95 291.253 388.684C283.946 391.418 279.771 384.608 282.256 376.903C284.045 371.783 286.531 366.862 289.613 362.388C291.949 359.008 295.826 353.988 298.014 357.318C298.212 357.964 298.809 358.412 299.505 358.412C300.598 358.014 301.841 358.014 302.984 358.412C303.481 358.909 304.227 359.157 304.923 358.958C306.017 358.61 307.06 358.064 308.005 357.318C312.429 353.292 316.406 348.768 319.885 343.847C321.526 342.008 322.023 342.704 322.47 343.151M527.816 365.072C525.231 367.608 523.143 370.54 521.503 373.771C520.708 375.114 520.26 376.704 520.31 378.245C523.094 375.66 525.579 372.827 527.816 369.745C529.804 366.912 529.357 363.532 527.816 364.824M539.796 384.707C540.79 381.725 543.971 386.845 545.86 388.187C547.749 389.529 553.167 387.839 547.302 378.295C545.81 374.964 543.623 372.032 540.889 369.695C539.796 369.695 535.471 377.848 527.915 384.061C525.728 386.447 522.298 387.292 519.266 386.199C518.57 385.552 517.924 384.807 517.427 383.962C516.582 384.31 507.833 388.435 505.049 389.728C498.637 392.213 495.505 384.509 500.576 378.941C501.321 378.096 502.315 377.003 503.161 376.008C506.491 372.429 508.976 368.154 510.517 363.532C510.816 361.593 511.71 361.742 512.605 362.935L513.848 364.227C514.991 365.57 514.544 366.216 513.55 368.453C512.257 370.888 510.766 373.175 509.076 375.263C507.286 377.35 505.596 379.587 504.105 381.973C503.011 384.31 503.558 385.453 505.099 385.453C508.827 384.21 512.456 382.719 515.985 380.979C515.985 379.488 516.134 377.947 516.532 376.505C518.322 372.529 520.509 368.701 523.094 365.172C524.734 362.438 527.567 357.467 530.997 358.461C531.942 358.71 532.737 359.406 533.085 360.35C533.483 361.394 533.632 362.537 533.383 363.631C531.544 370.938 527.17 377.301 521.006 381.625C522.199 383.763 525.977 380.731 527.12 379.786C528.86 378.295 530.5 376.655 531.991 374.915C541.436 364.327 539.149 361.096 542.331 356.374C547.501 348.868 549.737 353.441 547.998 355.131C543.623 358.859 542.629 365.271 545.761 370.093C548.992 374.169 551.577 378.742 553.466 383.564C555.553 389.927 550.533 396.041 545.164 393.754C541.536 392.76 539.149 389.281 539.597 385.552M463.145 377.698C461.952 380.78 463.443 381.625 464.487 381.675C466.873 381.228 468.812 379.488 469.508 377.201C470.701 374.915 471.794 372.529 472.739 370.093C473.435 368.552 470.999 368.751 470.005 369.149C466.675 370.888 464.139 373.97 463.145 377.698ZM428.2 366.862C429.393 367.757 429.393 367.26 430.338 365.818C433.867 360.002 436.899 353.838 439.335 347.476C441.025 341.163 427.405 345.686 425.218 347.128C418.258 351.601 417.712 358.461 428.101 366.862M456.932 363.83L467.072 362.637C468.315 362.736 469.558 362.488 470.651 361.941C471.645 361.344 472.789 360.996 473.932 360.847C476.368 360.549 476.169 363.084 480.841 361.543C482.979 360.996 485.116 360.3 487.154 359.406C489.093 357.914 491.38 356.871 493.766 356.374C494.611 356.473 495.356 357.02 495.804 357.765C496.251 358.76 497.196 359.455 498.289 359.555C501.421 359.953 506.242 357.865 508.43 358.66C509.971 359.803 510.319 361.941 509.175 363.482C508.827 363.929 508.43 364.277 507.933 364.526C506.392 364.575 506.392 362.885 504.354 362.885C500.874 362.537 497.345 363.283 494.312 365.023C493.02 366.564 492.076 368.453 491.628 370.441C490.037 375.511 488.745 380.631 487.751 385.851C487.204 388.336 485.166 389.877 483.277 388.783C481.637 387.242 481.189 384.856 482.134 382.868C483.178 379.19 488.596 366.613 488.397 364.874C487.999 364.227 487.254 363.879 486.508 364.029C484.52 364.327 482.581 364.923 480.742 365.719C479.002 366.166 477.561 367.409 476.865 369.049C474.727 373.523 473.932 375.511 472.938 377.698C471.645 380.83 469.856 383.663 467.52 386.149C465.879 387.889 463.046 390.623 460.56 388.286C454.198 381.924 459.864 377.301 464.09 369.845C465.332 367.409 466.078 367.309 463.294 367.111C460.063 366.812 456.832 366.961 453.651 367.459C449.624 368.204 450.271 367.459 448.779 371.187C447.338 374.02 446.344 377.052 445.747 380.184C445.25 386.298 448.68 385.006 451.364 379.637C453.005 376.406 453.104 376.853 454.148 377.698C455.888 379.239 455.59 380.432 452.756 384.807C451.712 386.795 450.022 388.386 447.934 389.281C445.896 390.225 443.51 389.281 442.566 387.242C442.417 386.895 442.317 386.547 442.268 386.199C441.323 381.327 442.019 376.257 444.157 371.833C444.852 370.441 445.35 368.9 445.548 367.359C445.548 364.675 436.551 372.777 426.908 383.465C424.87 385.95 422.434 388.137 419.7 389.827C417.761 391.418 414.928 391.12 413.387 389.181C413.288 389.082 413.238 388.982 413.138 388.883C410.703 385.602 415.872 383.465 416.966 382.57C424.273 377.599 424.969 375.909 424.87 373.573C424.621 367.309 412.293 363.979 414.729 353.341C416.916 343.996 431.63 340.367 433.867 340.367C439.534 339.671 447.338 343.3 442.019 350.906C438.44 356.224 434.96 361.692 431.879 367.409C430.686 370.292 432.574 371.137 434.364 369.695C434.96 369.248 444.654 360.698 450.668 354.435C454.844 349.961 459.666 350.856 457.23 355.081C455.689 357.716 454.894 359.157 453.701 361.096C451.613 364.575 451.116 364.575 456.882 363.73M515.389 352.297C516.632 351.005 520.31 348.768 520.658 352.695C520.857 354.137 520.409 355.578 519.465 356.721C517.129 359.803 512.605 355.429 515.389 352.248M249.498 350.558C246.516 354.137 246.516 357.666 248.106 363.482C248.106 364.923 248.653 366.315 249.647 367.409C251.089 366.415 252.381 365.172 253.425 363.78C256.706 360.798 258.197 356.324 257.402 351.949C255.96 346.979 252.182 347.724 249.498 350.558ZM244.13 381.576C246.217 380.283 248.206 378.891 250.095 377.4C249.448 376.307 248.752 375.263 247.957 374.269C247.957 374.269 242.589 379.289 241.744 380.333C239.308 382.719 239.258 384.558 244.13 381.576ZM242.837 373.523C244.03 372.678 245.074 371.634 245.969 370.491C245.521 368.652 244.975 366.812 244.328 365.023C239.507 353.441 248.802 339.075 257.799 346.034C262.82 350.408 263.367 358.064 258.943 363.084C258.843 363.233 258.694 363.333 258.595 363.482C257.004 365.669 251.685 370.839 251.735 371.137C251.983 371.833 252.282 372.529 252.679 373.175C253.027 373.97 253.624 374.666 254.369 375.064C255.413 374.617 256.358 374.02 257.302 373.374C258.943 372.877 260.185 371.485 260.583 369.845C260.682 368.9 261.478 368.204 262.422 368.304C262.472 368.304 262.522 368.304 262.571 368.304L264.957 369.596C266.051 370.59 266.2 372.28 265.206 373.424C265.107 373.523 265.057 373.573 264.957 373.672C263.168 375.114 261.18 376.207 259.042 377.003C258.147 377.4 257.302 377.897 256.557 378.494C257.899 380.582 259.44 382.57 261.03 384.409C264.609 388.883 266.449 391.915 271.171 390.026C271.718 389.827 272.314 390.026 272.563 390.573C272.811 390.871 273.01 391.169 273.209 391.517C273.557 392.164 273.408 392.959 272.861 393.406C265.753 396.488 261.229 391.915 256.905 386.397C255.612 384.459 254.171 382.669 252.58 380.979C252.232 380.979 245.521 385.95 242.34 387.988C239.208 389.976 234.884 391.02 232.995 388.237C230.41 384.409 237.518 378.394 242.837 373.523Z" fill="#D1D1D1" fill-opacity="0.5"/>
</g>
<path fill-rule="evenodd" clip-rule="evenodd" d="M742.023 381.576L736.766 387.697C741.624 393.087 748.544 395.549 755.797 395.549C766.045 395.549 775.361 389.161 775.361 379.446C775.361 361.28 745.882 365.938 745.882 354.826C745.882 350.301 750.274 348.171 755.93 348.171C760.588 348.171 765.18 350.301 768.307 352.763L772.499 346.308C767.775 342.449 761.853 340.319 755.797 340.319C746.881 340.319 737.831 345.51 737.831 355.025C737.831 373.191 767.309 368.6 767.309 379.513C767.309 385.169 761.52 387.697 755.797 387.697C750.607 387.631 745.084 384.636 742.023 381.576Z" fill="#D1D1D1" fill-opacity="0.5"/>
<path fill-rule="evenodd" clip-rule="evenodd" d="M701.699 387.631C712.413 387.631 721.196 378.448 721.196 367.934C721.196 357.288 712.413 348.238 701.699 348.238C690.986 348.238 682.069 357.288 682.069 367.934C682.003 378.515 690.919 387.631 701.699 387.631ZM701.566 340.319C716.871 340.319 729.181 352.696 729.181 367.934C729.181 383.173 716.871 395.549 701.566 395.549C686.395 395.549 673.951 383.173 673.951 367.934C673.951 352.696 686.395 340.319 701.566 340.319Z" fill="#D1D1D1" fill-opacity="0.5"/>
<path fill-rule="evenodd" clip-rule="evenodd" d="M667.895 349.569C662.838 343.78 655.452 340.319 647.001 340.319C631.696 340.319 619.386 352.563 619.386 367.934C619.386 383.306 631.696 395.549 647.001 395.549C655.585 395.549 663.104 391.89 668.161 386.1L662.106 380.91C658.579 385.102 653.189 387.697 647.067 387.697C636.421 387.697 627.504 378.648 627.504 368.001C627.504 357.354 636.421 348.304 647.067 348.304C653.189 348.304 658.446 350.966 662.106 355.158L667.895 349.569Z" fill="#D1D1D1" fill-opacity="0.5"/>
<g clip-path="url(#clip5_332_24534)">
<path d="M876.989 379.699H852.181L847.22 393.344H840.521L859.624 340.502H869.547L888.649 393.592H881.703L876.989 379.699V379.699ZM874.757 373.745L864.585 345.464L854.414 373.745H874.757V373.745ZM933.8 393.592H926.358C923.877 390.366 923.381 385.901 923.381 382.924C923.381 378.706 924.125 375.233 920.404 372.257H902.046V393.84H895.348V340.502H914.698C925.862 340.502 933.304 345.96 933.304 356.131C933.304 364.07 929.087 368.039 923.133 369.279C930.079 371.264 930.079 377.218 930.327 382.428C930.327 386.149 931.072 390.615 933.8 393.592V393.592ZM914.698 365.806C922.637 365.806 926.358 362.085 926.358 355.883C926.358 349.929 922.637 346.456 914.698 346.456H902.046V365.806H914.698V365.806ZM975.478 378.21C977.711 383.668 980.192 389.374 983.169 393.592H975.726C972.998 390.118 970.765 383.42 968.78 378.706L962.826 364.07L949.43 377.714V393.591H942.731V340.502H949.43V368.287L976.719 340.502H985.898L968.036 358.86L975.478 378.21ZM998.55 346.456V363.077H1025.84V369.032H998.55V387.142H1028.82V393.096H991.852V340.502H1028.82V346.456H998.55ZM1078.93 346.456H1060.07V393.592H1053.38V346.456H1034.52V340.502H1079.18V346.456H1078.93Z" fill="#D1D1D1" fill-opacity="0.5"/>
</g>
<g clip-path="url(#clip6_332_24534)">
<path d="M1192.06 349.039V364.394H1206.17V372.362H1192.06V396.432H1182.43V341.071H1208.49V349.039H1192.06Z" fill="#D1D1D1" fill-opacity="0.5"/>
<path d="M1233.56 382.901V354.598C1233.56 350.78 1232.07 348.29 1228 348.29C1224.02 348.29 1222.44 350.78 1222.44 354.598V382.984C1222.44 386.802 1223.93 389.292 1228 389.292C1232.07 389.209 1233.56 386.719 1233.56 382.901ZM1212.73 382.071V355.428C1212.73 346.713 1217.96 340.322 1228.08 340.322C1238.13 340.322 1243.44 346.713 1243.44 355.428V382.071C1243.44 390.786 1238.21 397.177 1228.08 397.177C1217.96 397.177 1212.73 390.786 1212.73 382.071Z" fill="#D1D1D1" fill-opacity="0.5"/>
<path d="M1249.83 382.073V341.071H1259.46V382.903C1259.46 386.721 1260.87 389.211 1264.85 389.211C1268.84 389.211 1270.25 386.721 1270.25 382.903V341.071H1279.88V382.073C1279.88 390.788 1274.81 397.179 1264.85 397.179C1254.89 397.179 1249.83 390.788 1249.83 382.073Z" fill="#D1D1D1" fill-opacity="0.5"/>
<path d="M1286.85 341.071H1298.14L1309.09 375.765H1309.26V341.071H1318.14V396.349H1307.43L1295.81 359.663H1295.65V396.349H1286.77L1286.85 341.071Z" fill="#D1D1D1" fill-opacity="0.5"/>
<path d="M1345.69 355.264C1345.69 351.529 1344.12 349.039 1340.13 349.039H1334.99V388.464H1340.13C1344.03 388.464 1345.69 385.974 1345.69 382.239V355.264ZM1355.49 356.177V381.243C1355.49 389.958 1350.42 396.349 1340.13 396.349H1325.36V341.071H1340.13C1350.42 341.071 1355.49 347.462 1355.49 356.177Z" fill="#D1D1D1" fill-opacity="0.5"/>
<path d="M1155.87 364.975L1159.53 346.383L1163.18 364.975H1155.87ZM1166.25 383.235H1175.3L1167.16 341.071H1152.55L1144.34 383.235H1152.8L1154.71 372.113H1164.42L1166.25 383.235Z" fill="#D1D1D1" fill-opacity="0.5"/>
<path d="M1144.34 396.431H1175.38V388.961H1144.34V396.431Z" fill="#D1D1D1" fill-opacity="0.5"/>
</g>
<defs>
<clipPath id="clip0_332_24534">
<rect width="87.7183" height="57.8664" fill="white" transform="translate(232 186)"/>
</clipPath>
<clipPath id="clip1_332_24534">
<rect width="300.517" height="60.1033" fill="white" transform="translate(384.695 186)"/>
</clipPath>
<clipPath id="clip2_332_24534">
<rect width="257.273" height="50.6283" fill="white" transform="translate(750.188 186)"/>
</clipPath>
<clipPath id="clip3_332_24534">
<rect width="292.563" height="54.276" fill="white" transform="translate(1072.44 186)"/>
</clipPath>
<clipPath id="clip4_332_24534">
<rect width="322.409" height="54.0331" fill="white" transform="translate(232 340.319)"/>
</clipPath>
<clipPath id="clip5_332_24534">
<rect width="239.022" height="53.6056" fill="white" transform="translate(840.337 340.319)"/>
</clipPath>
<clipPath id="clip6_332_24534">
<rect width="211.15" height="56.8545" fill="white" transform="translate(1144.34 340.319)"/>
</clipPath>
</defs>
</svg>
