<svg width="40" height="40" viewBox="0 0 40 40" fill="none" xmlns="http://www.w3.org/2000/svg">
<rect width="40" height="40" fill="#FFF9E4" fill-opacity="0.06"/>
<path fill-rule="evenodd" clip-rule="evenodd" d="M24.3098 26.0169C22.7037 27.2601 20.6882 28 18.5 28C13.2533 28 9 23.7467 9 18.5C9 13.2533 13.2533 9 18.5 9C23.7467 9 28 13.2533 28 18.5C28 21.1978 26.8754 23.633 25.0695 25.3624L29.8536 30.1464C30.0488 30.3417 30.0488 30.6583 29.8536 30.8536C29.6583 31.0488 29.3417 31.0488 29.1464 30.8536L24.3098 26.0169ZM27 18.5C27 23.1944 23.1944 27 18.5 27C13.8056 27 10 23.1944 10 18.5C10 13.8056 13.8056 10 18.5 10C23.1944 10 27 13.8056 27 18.5Z" fill="#FFF9E4"/>
</svg>
